<svg xmlns="http://www.w3.org/2000/svg" viewBox="0 0 200 200" fill="none">
  <defs>
    <linearGradient id="shieldGrad" x1="0%" y1="0%" x2="100%" y2="100%">
      <stop offset="0%" stop-color="#2dd4bf"/>
      <stop offset="50%" stop-color="#14b8a6"/>
      <stop offset="100%" stop-color="#0d9488"/>
    </linearGradient>
    <linearGradient id="shieldInner" x1="0%" y1="0%" x2="100%" y2="100%">
      <stop offset="0%" stop-color="#134e4a"/>
      <stop offset="100%" stop-color="#0f3d3a"/>
    </linearGradient>
  </defs>
  <!-- Shield outer -->
  <path d="M100 10 L170 45 L170 110 C170 150 140 180 100 195 C60 180 30 150 30 110 L30 45 Z" fill="url(#shieldGrad)"/>
  <!-- Shield inner -->
  <path d="M100 22 L160 52 L160 110 C160 145 135 172 100 185 C65 172 40 145 40 110 L40 52 Z" fill="url(#shieldInner)"/>
  <!-- Keyhole circle -->
  <circle cx="100" cy="85" r="18" fill="url(#shieldGrad)"/>
  <circle cx="100" cy="85" r="10" fill="url(#shieldInner)"/>
  <!-- Keyhole body -->
  <path d="M93 95 L90 130 L110 130 L107 95 Z" fill="url(#shieldGrad)"/>
  <!-- Circuit lines -->
  <line x1="100" y1="55" x2="100" y2="65" stroke="#2dd4bf" stroke-width="2" stroke-linecap="round"/>
  <line x1="75" y1="70" x2="65" y2="60" stroke="#2dd4bf" stroke-width="2" stroke-linecap="round"/>
  <line x1="125" y1="70" x2="135" y2="60" stroke="#2dd4bf" stroke-width="2" stroke-linecap="round"/>
  <circle cx="65" cy="60" r="3" fill="#2dd4bf"/>
  <circle cx="135" cy="60" r="3" fill="#2dd4bf"/>
  <circle cx="100" cy="55" r="3" fill="#2dd4bf"/>
  <!-- Side circuits -->
  <line x1="55" y1="90" x2="45" y2="90" stroke="#2dd4bf" stroke-width="1.5" stroke-linecap="round"/>
  <line x1="45" y1="90" x2="45" y2="110" stroke="#2dd4bf" stroke-width="1.5" stroke-linecap="round"/>
  <circle cx="45" cy="110" r="2.5" fill="#2dd4bf"/>
  <line x1="145" y1="90" x2="155" y2="90" stroke="#2dd4bf" stroke-width="1.5" stroke-linecap="round"/>
  <line x1="155" y1="90" x2="155" y2="110" stroke="#2dd4bf" stroke-width="1.5" stroke-linecap="round"/>
  <circle cx="155" cy="110" r="2.5" fill="#2dd4bf"/>
  <!-- Bottom circuit -->
  <line x1="80" y1="140" x2="70" y2="155" stroke="#2dd4bf" stroke-width="1.5" stroke-linecap="round"/>
  <circle cx="70" cy="155" r="2.5" fill="#2dd4bf"/>
  <line x1="120" y1="140" x2="130" y2="155" stroke="#2dd4bf" stroke-width="1.5" stroke-linecap="round"/>
  <circle cx="130" cy="155" r="2.5" fill="#2dd4bf"/>
</svg>
